<svg xmlns="http://www.w3.org/2000/svg" xmlns:xlink="http://www.w3.org/1999/xlink" width="296" height="64" preserveAspectRatio="xMidYMid meet" version="1.1" viewBox="0 0 296 64"><defs><path id="c142uHEaHu" d="M24.72 9.47C25.08 9.17 25.54 9 26.01 9C51.26 9 253.25 9 278.5 9C279.61 9 280.5 9.89 280.5 11C280.5 24.1 280.5 41.67 280.5 45.86C280.5 46.45 280.24 47.01 279.79 47.39C279.51 47.62 278.12 48.79 275.61 50.89C273.01 53.08 271.57 54.29 271.28 54.53C270.92 54.83 270.46 55 269.99 55C244.74 55 42.75 55 17.5 55C16.4 55 15.5 54.1 15.5 53C15.5 49.51 15.5 21.63 15.5 18.15C15.5 17.56 15.76 16.99 16.21 16.61C16.49 16.38 17.88 15.21 20.39 13.11C22.99 10.92 24.43 9.71 24.72 9.47Z"/></defs><g><g><g><g><filter id="shadow4889158" width="315" height="96" x="-9.5" y="-16" filterUnits="userSpaceOnUse" primitiveUnits="userSpaceOnUse"><feFlood/><feComposite in2="SourceAlpha" operator="in"/><feGaussianBlur stdDeviation="3.16"/><feOffset dx="0" dy="0" result="afterOffset"/><feFlood flood-color="#45fff4" flood-opacity=".5"/><feComposite in2="afterOffset" operator="in"/><feMorphology operator="dilate" radius="0"/><feComposite in2="SourceAlpha" operator="out"/></filter><path id="aAYCxaMxb" fill="#fff" fill-opacity="1" d="M24.72 9.47C25.08 9.17 25.54 9 26.01 9C51.26 9 253.25 9 278.5 9C279.61 9 280.5 9.89 280.5 11C280.5 24.1 280.5 41.67 280.5 45.86C280.5 46.45 280.24 47.01 279.79 47.39C279.51 47.62 278.12 48.79 275.61 50.89C273.01 53.08 271.57 54.29 271.28 54.53C270.92 54.83 270.46 55 269.99 55C244.74 55 42.75 55 17.5 55C16.4 55 15.5 54.1 15.5 53C15.5 49.51 15.5 21.63 15.5 18.15C15.5 17.56 15.76 16.99 16.21 16.61C16.49 16.38 17.88 15.21 20.39 13.11C22.99 10.92 24.43 9.71 24.72 9.47Z" filter="url(#shadow4889158)"/></g><use fill="#45fff4" fill-opacity="1" opacity="1" xlink:href="#c142uHEaHu"/><g><use fill-opacity="0" stroke="#000" stroke-opacity="0" stroke-width="1" opacity="1" xlink:href="#c142uHEaHu"/></g><g><filter id="shadow5800831" width="315" height="96" x="-9.5" y="-16" filterUnits="userSpaceOnUse" primitiveUnits="userSpaceOnUse"><feFlood/><feComposite in2="SourceAlpha" operator="out"/><feGaussianBlur stdDeviation="3.16"/><feOffset dx="0" dy="0" result="afterOffset"/><feFlood flood-color="#45fff4" flood-opacity=".5"/><feComposite in2="afterOffset" operator="in"/><feMorphology operator="dilate" radius="0"/><feComposite in2="SourceAlpha" operator="in"/></filter><path id="e5Ubt7mIwg" fill="#fff" fill-opacity="1" d="M24.72 9.47C25.08 9.17 25.54 9 26.01 9C51.26 9 253.25 9 278.5 9C279.61 9 280.5 9.89 280.5 11C280.5 24.1 280.5 41.67 280.5 45.86C280.5 46.45 280.24 47.01 279.79 47.39C279.51 47.62 278.12 48.79 275.61 50.89C273.01 53.08 271.57 54.29 271.28 54.53C270.92 54.83 270.46 55 269.99 55C244.74 55 42.75 55 17.5 55C16.4 55 15.5 54.1 15.5 53C15.5 49.51 15.5 21.63 15.5 18.15C15.5 17.56 15.76 16.99 16.21 16.61C16.49 16.38 17.88 15.21 20.39 13.11C22.99 10.92 24.43 9.71 24.72 9.47Z" filter="url(#shadow5800831)"/></g></g></g></g></svg>