<svg xmlns="http://www.w3.org/2000/svg" width="29" height="29" fill="none" viewBox="0 0 29 29"><g filter="url(#filter0_d)"><path fill="#45FFF4" d="M2 2V8.25H3.25V3.25H8.25V2H2Z"/><path fill="#45FFF4" d="M2 27V20.75H3.25V25.75H8.25V27H2Z"/><path fill="#45FFF4" d="M27 2V8.25H25.75V3.25L20.75 3.25V2H27Z"/><path fill="#45FFF4" d="M27 27V20.75H25.75V25.75H20.75V27H27Z"/><path fill="#45FFF4" d="M13.7352 14.5L8 20.2352L8.7647 20.9998L14.4999 15.2647L20.2353 21L21 20.2353L15.2646 14.5L21 8.7647L20.2353 8L14.4999 13.7353L8.76473 8.00015L8.00003 8.76485L13.7352 14.5Z"/></g><defs><filter id="filter0_d" width="29" height="29" x="0" y="0" color-interpolation-filters="sRGB" filterUnits="userSpaceOnUse"><feFlood flood-opacity="0" result="BackgroundImageFix"/><feColorMatrix in="SourceAlpha" type="matrix" values="0 0 0 0 0 0 0 0 0 0 0 0 0 0 0 0 0 0 127 0"/><feOffset/><feGaussianBlur stdDeviation="1"/><feColorMatrix type="matrix" values="0 0 0 0 0.270588 0 0 0 0 1 0 0 0 0 0.956863 0 0 0 1 0"/><feBlend in2="BackgroundImageFix" mode="normal" result="effect1_dropShadow"/><feBlend in="SourceGraphic" in2="effect1_dropShadow" mode="normal" result="shape"/></filter></defs></svg>