<svg xmlns="http://www.w3.org/2000/svg" width="251" height="100" fill="none" viewBox="0 0 251 100"><rect width="2" height="20" fill="#45FFF4" transform="matrix(1 0 0 -1 0 100)"/><rect width="2" height="20" fill="#45FFF4" transform="matrix(-4.37114e-08 1 1 4.37114e-08 0 98)"/><rect width="2" height="20" x="251" y="100" fill="#45FFF4" transform="rotate(-180 251 100)"/><rect width="2" height="20" x="251" y="98" fill="#45FFF4" transform="rotate(90 251 98)"/><rect width="2" height="20" fill="#45FFF4"/><rect width="2" height="20" y="2" fill="#45FFF4" transform="rotate(-90 0 2)"/><rect width="2" height="20" fill="#45FFF4" transform="matrix(-1 0 0 1 250 0)"/><rect width="2" height="20" fill="#45FFF4" transform="matrix(4.37114e-08 -1 -1 -4.37114e-08 250 2)"/></svg>